<?xml version="1.0" encoding="UTF-8"?>
<svg width="20px" height="134px" viewBox="0 0 20 134" version="1.1" xmlns="http://www.w3.org/2000/svg" xmlns:xlink="http://www.w3.org/1999/xlink">
    <title>Logo-Radio-France</title>
    <g id="Page-1" stroke="none" stroke-width="1" fill="none" fill-rule="evenodd">
        <g id="Radio-France" transform="translate(-952.000000, -824.000000)" fill="#FFFFFF">
            <g id="Logo-Radio-France" transform="translate(962.000000, 891.000000) rotate(-90.000000) translate(-962.000000, -891.000000) translate(895.000000, 881.000000)">
                <path d="M3.93013032,5.34136813 L3.93013032,8.02965921 L3.98757762,8.02965921 C4.4177644,6.50135255 5.27880596,4.91671039 7.11478169,5.05804334 L7.83220498,5.1147083 L7.83220498,9.27497051 C4.61882997,9.10497564 4.21703284,11.6802662 4.21703284,14.2268949 L4.21703284,19.7171364 L-1.13686838e-13,19.7171364 L-1.13686838e-13,5.34136813 L3.93013032,5.34136813 Z" id="Fill-1"></path>
                <path d="M17.2128152,12.8401518 C15.6062947,13.0101467 12.6510985,13.3781395 12.6510985,15.4721074 C12.6510985,16.6044182 13.3397982,17.3680774 14.5161319,17.3680774 C15.3765055,17.3680774 16.1513761,16.9154166 16.6390101,16.1797605 C17.2415388,15.2741095 17.2128152,14.4251234 17.2128152,13.4061425 L17.2128152,12.8401518 Z M17.6146123,19.7170376 C17.4422704,18.9813815 17.3848231,18.2170634 17.4135467,17.4814073 C16.2088234,19.1790499 14.9463187,19.9997035 12.7659931,19.9997035 C10.1842044,19.9997035 8.17555282,18.6410623 8.17555282,15.9244387 C8.17555282,13.8027972 9.52389446,12.359488 11.4463751,11.6518349 C13.1103429,11.0291793 15.4339528,10.9161788 17.2128152,10.7461839 L17.2128152,10.4065236 C17.2128152,9.78386797 17.2702625,9.04821184 16.8397417,8.51055363 C16.4670022,8.02956037 15.7495789,7.83123302 15.1183266,7.83123302 C13.7699849,7.83123302 12.5936512,8.51055363 12.5936512,9.92585981 L8.6057396,9.55786703 C9.03626037,6.07692542 12.4790906,5.0579445 15.5488474,5.0579445 C17.0408073,5.0579445 18.9916776,5.39793426 20.1676773,6.35992077 C21.6596372,7.54856712 21.516019,9.13320928 21.516019,10.8595138 L21.516019,17.5664047 C21.516019,18.3020609 21.5734663,19.009714 21.8032555,19.7170376 L17.6146123,19.7170376 Z" id="Fill-3"></path>
                <path d="M31.9004874,11.7366347 C31.9004874,10.3499904 31.7859268,7.97302719 29.8634461,7.97302719 C27.4536653,7.97302719 27.3674944,11.085976 27.3674944,12.8119511 C27.3674944,14.3685903 27.5972836,17.0005458 29.6914382,17.0005458 C30.4659748,17.0005458 31.1833981,16.4912201 31.5274139,15.8399025 C31.8717637,15.1892438 31.9004874,14.4249258 31.9004874,13.7176021 L31.9004874,11.7366347 Z M32.101219,19.7171694 L32.101219,17.4812096 L32.0437717,17.4812096 C31.2405114,19.0095163 30.035788,19.9998353 28.1707546,19.9998353 C24.0682824,19.9998353 22.9206723,16.0379004 22.9206723,12.6986212 C22.9206723,9.27500346 24.0108351,5.05807628 28.2569256,5.05807628 C29.8921698,5.05807628 30.9823325,5.53939899 31.9004874,6.86937828 L31.9004874,0.304149786 L36.1178542,0.304149786 L36.1178542,19.7171694 L32.101219,19.7171694 Z" id="Fill-5"></path>
                <path d="M38.3831149,19.7170705 L42.6004818,19.7170705 L42.6004818,5.34130224 L38.3831149,5.34130224 L38.3831149,19.7170705 Z M38.3831149,4.03965542 L42.6004818,4.03965542 L42.6004818,0.0210556044 L38.3831149,0.0210556044 L38.3831149,4.03965542 Z" id="Fill-7"></path>
                <path d="M48.8254827,12.0763609 C48.8254827,13.7173386 48.7967746,17.2262832 51.2065554,17.2262832 C53.5879465,17.2262832 53.7028411,14.3969886 53.7028411,12.6706841 C53.7028411,11.5387027 53.6453938,10.1803909 53.2439307,9.10474502 C52.8992468,8.17109099 52.2108812,7.8030982 51.235279,7.8030982 C48.9687825,7.8030982 48.8254827,10.4350538 48.8254827,12.0763609 M58.2355001,12.6423516 C58.2355001,16.7452899 55.5100932,19.9999012 51.2065554,19.9999012 C46.7310097,19.9999012 44.2925053,16.660622 44.2925053,12.5003597 C44.2925053,8.31275339 46.7597333,5.05814217 51.2065554,5.05814217 C55.768272,5.05814217 58.2355001,8.39742138 58.2355001,12.6423516" id="Fill-9"></path>
                <path d="M64.460049,19.7170376 L60.2426822,19.7170376 L60.2426822,8.93488192 L58.5503247,8.93488192 L58.5503247,5.70893264 L60.2426822,5.70893264 C60.2426822,4.46395078 60.1855688,2.9639766 60.9026581,1.88866017 C61.8779263,0.445350957 63.800073,-0.12031029 65.4643748,0.0210226596 L67.4152451,0.190688089 L67.4152451,3.38863435 L65.9807325,3.30363691 C64.460049,3.21896892 64.460049,4.18095543 64.460049,5.39793426 L64.460049,5.70893264 L67.0421717,5.70893264 L67.0421717,8.93488192 L64.460049,8.93488192 L64.460049,19.7170376 Z" id="Fill-10"></path>
                <path d="M71.7464712,5.34136813 L71.7464712,8.02965921 L71.8039185,8.02965921 C72.2341053,6.50135255 73.0948128,4.91671039 74.9307886,5.05804334 L75.6482119,5.1147083 L75.6482119,9.27497051 C72.4351708,9.10497564 72.0333737,11.6802662 72.0333737,14.2268949 L72.0333737,19.7171364 L67.8156729,19.7171364 L67.8156729,5.34136813 L71.7464712,5.34136813 Z" id="Fill-11"></path>
                <path d="M85.0290224,12.8401518 C83.4221679,13.0101467 80.4673058,13.3781395 80.4673058,15.4721074 C80.4673058,16.6044182 81.1560054,17.3680774 82.3323392,17.3680774 C83.1930467,17.3680774 83.9675833,16.9154166 84.4548834,16.1797605 C85.0574121,15.2741095 85.0290224,14.4251234 85.0290224,13.4061425 L85.0290224,12.8401518 Z M85.4304856,19.7170376 C85.2584777,18.9813815 85.2013644,18.2170634 85.230088,17.4814073 C84.0250306,19.1790499 82.7625259,19.9997035 80.5822004,19.9997035 C78.0000777,19.9997035 75.9917601,18.6410623 75.9917601,15.9244387 C75.9917601,13.8027972 77.3401017,12.359488 79.2622484,11.6518349 C80.9262162,11.0291793 83.250494,10.9161788 85.0290224,10.7461839 L85.0290224,10.4065236 C85.0290224,9.78386797 85.0864698,9.04821184 84.655949,8.51055363 C84.2832095,8.02956037 83.5657862,7.83123302 82.9345339,7.83123302 C81.5858582,7.83123302 80.4098585,8.51055363 80.4098585,9.92585981 L76.4222809,9.55786703 C76.8524676,6.07692542 80.2952979,5.0579445 83.3653886,5.0579445 C84.8566805,5.0579445 86.8075509,5.39793426 87.9842186,6.35992077 C89.4758445,7.54856712 89.3325602,9.13320928 89.3325602,10.8595138 L89.3325602,17.5664047 C89.3325602,18.3020609 89.3896735,19.009714 89.6191288,19.7170376 L85.4304856,19.7170376 Z" id="Fill-12"></path>
                <path d="M95.2987299,5.34136813 L95.2987299,7.77466689 L95.3561772,7.77466689 C96.2165507,5.93569131 97.4212741,5.05804334 99.5444864,5.05804334 C100.921552,5.05804334 102.269893,5.48270108 103.130601,6.64301495 C103.933861,7.71833138 103.933861,9.52963338 103.933861,10.8312802 L103.933861,19.7171364 L99.7168283,19.7171364 L99.7168283,11.9919235 C99.7168283,10.5199524 99.9172258,8.36931951 97.7946816,8.36931951 C97.0482006,8.36931951 96.360169,8.79364781 96.0158192,9.44463594 C95.5852984,10.2652895 95.5281851,11.0859431 95.5281851,11.9919235 L95.5281851,19.7171364 L91.3108182,19.7171364 L91.3108182,5.34136813 L95.2987299,5.34136813 Z" id="Fill-13"></path>
                <path d="M115.06451,10.8028159 C115.06451,9.50116912 114.37581,8.22752534 112.855795,8.22752534 C110.531517,8.22752534 110.244614,10.4914881 110.244614,12.3307931 C110.244614,14.0854302 110.273338,16.5757234 112.683119,16.5757234 C114.175413,16.5757234 114.920892,15.41508 115.06451,14.0854302 L119.081145,14.3117606 C118.736461,17.8773702 116.011388,20 112.453664,20 C108.035565,20 105.425053,16.9153837 105.425053,12.6704535 C105.425053,8.25618726 108.121736,5.05824101 112.711842,5.05824101 C116.097225,5.05824101 118.793909,7.20887387 119.081145,10.5764856 L115.06451,10.8028159 Z" id="Fill-14"></path>
                <path d="M129.780872,10.7746811 C129.695035,9.218042 129.178344,7.77473278 127.342368,7.77473278 C125.477335,7.77473278 124.760245,9.13304456 124.616627,10.7746811 L129.780872,10.7746811 Z M124.645351,13.2366418 L124.616627,13.9439655 C124.616627,15.6416081 125.592229,17.0282524 127.428205,17.0282524 C128.719433,17.0282524 130.010328,16.0945983 130.010328,14.764619 L133.912068,15.0476144 C133.912068,15.754938 132.219377,19.9998682 127.284921,19.9998682 C122.92427,19.9998682 120.083968,17.0002493 120.083968,12.7269866 C120.083968,8.48238587 122.637033,5.05810923 127.17036,5.05810923 C129.207067,5.05810923 131.301556,5.96376023 132.506279,7.60506735 C133.711671,9.24637448 134.026963,11.2840069 133.998239,13.2366418 L124.645351,13.2366418 Z" id="Fill-15"></path>
            </g>
        </g>
    </g>
</svg>