<?xml version="1.0" encoding="UTF-8"?>
<svg width="55px" height="200px" viewBox="0 0 55 200" version="1.1" xmlns="http://www.w3.org/2000/svg" xmlns:xlink="http://www.w3.org/1999/xlink">
    <title>6CE19B38-F912-4F14-B136-9B8973E718DB</title>
    <g id="Page-1" stroke="none" stroke-width="1" fill="none" fill-rule="evenodd">
        <g id="Crédit-du-Nord" transform="translate(-933.000000, -758.000000)" fill="#FFFFFF" fill-rule="nonzero">
            <g id="Logo-Credit-du-Nord" transform="translate(960.500000, 858.000000) rotate(-90.000000) translate(-960.500000, -858.000000) translate(860.500000, 830.500000)">
                <polygon id="Path" points="186.970684 28.4832069 182.64732 0 178.797749 28.4832069 165.768434 28.4832069 176.724904 34.4420368 173.171454 45.4062839 182.706544 37.8385699 194.965946 55 188.806633 34.4420368 200 28.4832069"></polygon>
                <path d="M28.1314776,26.5763814 L33.8762215,23.9544962 L34.764584,26.099675 L28.5460468,27.5297941 L28.1314776,26.5763814 M12.2001777,29.4366197 L15.8720758,29.4366197 C15.3982825,26.099675 12.2001777,24.1928494 8.46905537,24.1928494 C3.13888066,24.1928494 -1.13686838e-13,27.5297941 -1.13686838e-13,31.8201517 C-1.13686838e-13,36.1105092 3.13888066,39.3282774 8.46905537,39.3282774 C12.673971,39.3282774 15.6351792,37.0043337 15.9905241,33.4290358 L12.318626,33.4290358 C12.0817293,35.3358613 10.7787977,36.6468039 8.46905537,36.6468039 C5.03405389,36.6468039 3.79034646,34.2036836 3.79034646,31.8201517 C3.79034646,29.4366197 5.03405389,26.8743229 8.46905537,26.8743229 C10.3050044,26.8743229 11.963281,27.9469122 12.2001777,29.4366197 M16.9381107,28.5427952 L16.9381107,38.9707476 L20.3731122,38.9707476 L20.3731122,34.2632719 C20.3731122,32.4160347 21.2022505,30.9263272 23.6896654,30.9263272 L24.9333728,31.0455038 L24.9333728,28.3640303 L24.2226829,28.2448537 C22.5644063,28.2448537 20.8469055,29.1386782 20.2546639,30.4496208 L20.1954397,30.4496208 L20.1954397,28.5427952 L16.9381107,28.5427952 M28.1314776,34.4420368 L37.1335505,34.4420368 C37.3704471,31.2242687 35.2976014,28.2448537 31.0926858,28.2448537 C26.8877702,28.2448537 24.7557003,30.6283857 24.7557003,33.7865655 C24.7557003,36.9447454 27.183891,39.2686891 31.0926858,39.2686891 C33.8762215,39.2686891 35.9490672,38.1960997 36.8966538,35.7529794 L33.8762215,35.7529794 C33.698549,36.4084507 32.5732899,37.063922 31.2111341,37.063922 C29.8489784,37.063922 28.249926,36.2892741 28.1314776,34.4420368 M28.1314776,32.6543879 C28.1907018,31.8201517 28.8421676,30.3900325 30.9742375,30.3900325 C33.1063074,30.3900325 33.4024282,31.1646804 33.698549,32.6543879 L28.1314776,32.6543879 Z M47.3793308,37.659805 L47.3793308,38.9707476 L50.6366598,38.9707476 L50.6366598,24.5503792 L47.2016583,24.5503792 L47.2016583,29.7941495 L47.2016583,29.7941495 C46.2449138,28.7507788 44.8801709,28.1840887 43.470536,28.2448537 C39.7986378,28.2448537 37.9626888,30.8667389 37.9626888,33.6673889 C37.9626888,36.468039 39.7986378,39.2686891 43.5297601,39.2686891 C45.1288126,39.2686891 46.5501925,38.7919827 47.3201066,37.659805 L47.3793308,37.659805 M47.3201066,33.7269772 C47.3201066,35.4550379 46.6686408,37.063922 44.3588984,37.063922 C42.0491561,37.063922 41.3976903,35.3954496 41.3976903,33.7269772 C41.3976903,32.0585049 42.1676044,30.3900325 44.3588984,30.3900325 C46.5501925,30.3900325 47.3201066,32.0585049 47.3201066,33.7269772 Z M55.3153687,24.5503792 L51.8803672,24.5503792 L51.8803672,26.9339112 L55.3153687,26.9339112 L55.3153687,24.5503792 Z M51.8803672,38.9707476 L55.3153687,38.9707476 L55.3153687,28.5427952 L51.8803672,28.5427952 L51.8803672,38.9707476 Z M57.9212319,38.9707476 L61.3562333,38.9707476 L61.3562333,31.283857 L63.4883032,31.283857 L63.4883032,28.5427952 L61.3562333,28.5427952 L61.3562333,25.3846154 L57.9212319,25.3846154 L57.9212319,28.5427952 L56.3814036,28.5427952 L56.3814036,31.283857 L57.9212319,31.283857 L57.9212319,38.9707476 M78.1758958,37.659805 L78.1758958,38.9707476 L81.3740006,38.9707476 L81.3740006,24.5503792 L77.9982233,24.5503792 L77.9982233,29.7941495 L77.9389991,29.7941495 C77.010407,28.7462507 75.6608091,28.1768105 74.267101,28.2448537 C70.5952028,28.2448537 68.7592538,30.8667389 68.7592538,33.6673889 C68.7592538,36.468039 70.5952028,39.2686891 74.3263251,39.2686891 C75.9253776,39.2686891 77.2875333,38.7919827 78.1166716,37.659805 L78.1758958,37.659805 M78.1166716,33.7269772 C78.1166716,35.4550379 77.4059816,37.063922 75.1554634,37.063922 C72.9049452,37.063922 72.1350311,35.3954496 72.1350311,33.7269772 C72.1350311,32.0585049 72.9049452,30.3900325 75.1554634,30.3900325 C77.4059816,30.3900325 78.1166716,32.0585049 78.1166716,33.7269772 Z M94.3440924,38.9707476 L94.3440924,28.5427952 L90.9683151,28.5427952 L90.9683151,34.0249187 C90.9683151,36.1105092 90.1391768,37.0043337 88.3032277,37.0043337 C86.4672786,37.0043337 86.1119337,36.1700975 86.1119337,34.4420368 L86.1119337,28.5427952 L82.6769322,28.5427952 L82.6769322,34.9783315 C82.6769322,37.5406284 83.6245188,39.2686891 87.2371928,39.2686891 C88.696109,39.3027141 90.0910913,38.6667263 91.0275392,37.5406284 L91.0867634,37.5406284 L91.0867634,38.9707476 L94.3440924,38.9707476 M101.332544,24.5503792 L101.332544,38.9707476 L104.885993,38.9707476 L104.885993,29.3174431 L104.945218,29.3174431 L112.052117,38.9707476 L115.842464,38.9707476 L115.842464,24.5503792 L112.289014,24.5503792 L112.289014,34.2036836 L112.22979,34.2036836 L105.063666,24.5503792 L101.332544,24.5503792 M123.127036,28.2448537 C119.218241,28.2448537 116.730826,30.4496208 116.730826,33.7865655 C116.730826,37.1235103 119.218241,39.2686891 123.127036,39.2686891 C127.035831,39.2686891 129.58247,37.063922 129.58247,33.7865655 C129.58247,30.5092091 127.035831,28.2448537 123.127036,28.2448537 M120.106603,33.7865655 C120.106603,32.1180932 120.817293,30.3900325 123.127036,30.3900325 C125.436778,30.3900325 126.147468,32.1180932 126.147468,33.7865655 C126.147468,35.4550379 125.496002,37.063922 123.127036,37.063922 C120.758069,37.063922 120.106603,35.3954496 120.106603,33.7865655 L120.106603,33.7865655 Z M130.352384,28.5427952 L130.352384,38.9707476 L133.787385,38.9707476 L133.787385,34.2632719 C133.787385,32.4160347 134.616524,30.9263272 137.163163,30.9263272 L138.347646,31.0455038 L138.347646,28.3640303 L137.636956,28.2448537 C135.978679,28.2448537 134.261179,29.1386782 133.668937,30.4496208 L133.609713,30.4496208 L133.609713,28.5427952 L130.352384,28.5427952 M147.764288,37.659805 L147.764288,38.9707476 L150.962393,38.9707476 L150.962393,24.5503792 L147.586615,24.5503792 L147.586615,29.7941495 L147.527391,29.7941495 C146.598799,28.7462507 145.249201,28.1768105 143.855493,28.2448537 C140.183595,28.2448537 138.347646,30.8667389 138.347646,33.6673889 C138.347646,36.468039 140.183595,39.2686891 143.914717,39.2686891 C145.51377,39.2686891 146.875925,38.7919827 147.705064,37.659805 L147.764288,37.659805 M147.705064,33.7269772 C147.705064,35.4550379 146.994374,37.063922 144.743855,37.063922 C142.493337,37.063922 141.723423,35.3954496 141.723423,33.7269772 C141.723423,32.0585049 142.493337,30.3900325 144.743855,30.3900325 C146.994374,30.3900325 147.705064,32.0585049 147.705064,33.7269772 L147.705064,33.7269772 Z" id="Shape"></path>
            </g>
        </g>
    </g>
</svg>