<?xml version="1.0" encoding="UTF-8"?>
<svg width="70px" height="70px" viewBox="0 0 70 70" version="1.1" xmlns="http://www.w3.org/2000/svg" xmlns:xlink="http://www.w3.org/1999/xlink">
    <title>2B026297-7FD9-4C65-951B-8B95101714A6</title>
    <g id="Page-1" stroke="none" stroke-width="1" fill="none" fill-rule="evenodd">
        <g id="Gefco" transform="translate(-952.000000, -888.000000)" fill="#FFFFFF" fill-rule="nonzero">
            <g id="Group-7" transform="translate(909.000000, 0.000000)">
                <g id="Logo-Gefco" transform="translate(78.000000, 923.000000) rotate(-90.000000) translate(-78.000000, -923.000000) translate(43.000000, 888.000000)">
                    <g id="XMLID_37_">
                        <path d="M70,70 L0,70 L0,0 L70,0 L70,70 Z M2.94682422,67.0531758 L67.0531758,67.0531758 L67.0531758,2.94682422 L2.94682422,2.94682422 L2.94682422,67.0531758 Z" id="XMLID_38_"></path>
                    </g>
                    <g id="Group" transform="translate(7.031019, 52.293205)">
                        <path d="M11.6838996,4.11004431 L11.6838996,8.99556869 C11.6838996,9.04726736 11.6580502,9.07311669 11.6063516,9.09896603 C10.8308715,9.33161004 9.09896603,9.64180207 7.26366322,9.64180207 C0.82717873,9.64180207 0,6.46233383 0,4.8338257 C0,3.20531758 1.18906942,0.0258493353 7.65140325,0.0258493353 C8.84047267,0.0258493353 9.84859675,0.129246677 10.7016248,0.310192024 C10.7533235,0.336041359 10.8050222,0.38774003 10.7791728,0.4394387 L10.1846381,2.09379616 C10.1587888,2.14549483 10.1070901,2.17134417 10.0553914,2.17134417 C9.43500739,1.99039882 8.65952733,1.88700148 7.67725258,1.88700148 C3.56720827,1.88700148 2.79172821,3.85155096 2.79172821,4.8338257 C2.79172821,5.79025111 3.4379616,7.75480059 7.78064993,7.75480059 C8.22008863,7.75480059 8.60782866,7.72895126 8.96971935,7.70310192 C9.02141802,7.70310192 9.07311669,7.65140325 9.07311669,7.59970458 L9.07311669,5.86779911 C9.07311669,5.81610044 9.02141802,5.76440177 8.96971935,5.76440177 L6.17799114,5.76440177 C6.10044313,5.76440177 6.04874446,5.68685377 6.0745938,5.6351551 L6.64327917,4.11004431 C6.66912851,4.05834564 6.69497784,4.03249631 6.74667651,4.03249631 L11.5805022,4.03249631 C11.6322009,4.00664697 11.6838996,4.05834564 11.6838996,4.11004431 Z" id="XMLID_35_"></path>
                        <path d="M42.8840473,7.4704579 L43.5044313,9.20236337 C43.5302806,9.25406204 43.478582,9.33161004 43.4268833,9.33161004 C42.5997046,9.51255539 41.5915805,9.61595273 40.4542097,9.61595273 C34.1469719,9.61595273 32.9579025,6.43648449 32.9579025,4.80797637 C32.9579025,3.17946824 34.1211226,0 40.4542097,0 C41.6174298,0 42.5997046,0.103397341 43.4268833,0.284342688 C43.478582,0.310192024 43.5302806,0.361890694 43.5044313,0.413589365 L42.8840473,2.14549483 C42.8581979,2.1971935 42.8064993,2.22304284 42.7548006,2.22304284 C42.1344165,2.04209749 41.4106352,1.93870015 40.4542097,1.93870015 C36.4217134,1.93870015 35.6720827,3.82570162 35.6720827,4.80797637 C35.6720827,5.79025111 36.4217134,7.67725258 40.4542097,7.67725258 C41.3847858,7.67725258 42.1344165,7.57385524 42.7548006,7.3929099 C42.8064993,7.3929099 42.8581979,7.41875923 42.8840473,7.4704579 Z" id="XMLID_34_"></path>
                        <path d="M49.5790251,0 C45.9601182,0 43.1425406,2.11964549 43.1425406,4.8338257 C43.1425406,7.57385524 45.8825702,9.64180207 49.5531758,9.64180207 C53.1720827,9.64180207 55.9896603,7.52215657 55.9896603,4.80797637 C55.9638109,2.06794682 53.2237814,0 49.5790251,0 Z M49.5790251,7.67725258 C47.4593796,7.67725258 45.8567208,6.43648449 45.8567208,4.80797637 C45.8567208,3.20531758 47.4335303,1.96454948 49.5531758,1.96454948 C51.6728213,1.96454948 53.2754801,3.20531758 53.2754801,4.8338257 C53.2496307,6.46233383 51.6728213,7.67725258 49.5790251,7.67725258 Z" id="Shape"></path>
                        <path d="M26.6506647,2.24889217 L26.6506647,4.16174298 C26.6506647,4.21344165 26.7023634,4.26514032 26.754062,4.26514032 L31.7946824,4.26514032 C31.8722304,4.26514032 31.9239291,4.34268833 31.8980798,4.394387 L31.2776957,6.12629247 C31.2518464,6.17799114 31.225997,6.20384047 31.1742984,6.20384047 L26.754062,6.20384047 C26.7023634,6.20384047 26.6506647,6.25553914 26.6506647,6.30723781 L26.6506647,9.30576071 C26.6506647,9.35745938 26.598966,9.40915805 26.5472674,9.40915805 L23.9106352,9.40915805 C23.8589365,9.40915805 23.8072378,9.35745938 23.8072378,9.30576071 L23.8072378,0.284342688 C23.8072378,0.232644018 23.8589365,0.180945347 23.9106352,0.180945347 L33.6041359,0.180945347 C33.6816839,0.180945347 33.7333826,0.258493353 33.7075332,0.310192024 L33.0871492,2.04209749 C33.0612999,2.09379616 33.0354505,2.11964549 32.9837518,2.11964549 L26.754062,2.11964549 C26.676514,2.14549483 26.6506647,2.1971935 26.6506647,2.24889217 Z" id="XMLID_4_"></path>
                        <path d="M22.437223,7.65140325 L21.816839,9.38330871 C21.7909897,9.43500739 21.7651403,9.46085672 21.7134417,9.46085672 L13.2348597,9.46085672 C13.183161,9.46085672 13.1314623,9.40915805 13.1314623,9.35745938 L13.1314623,0.336041359 C13.1314623,0.284342688 13.183161,0.232644018 13.2348597,0.232644018 L22.3338257,0.232644018 C22.4113737,0.232644018 22.4630724,0.310192024 22.437223,0.361890694 L21.816839,2.09379616 C21.7909897,2.14549483 21.7651403,2.17134417 21.7134417,2.17134417 L16.0782866,2.17134417 C16.0265879,2.17134417 15.9748892,2.22304284 15.9748892,2.27474151 L15.9748892,3.82570162 C15.9748892,3.8774003 16.0265879,3.92909897 16.0782866,3.92909897 L20.9896603,3.92909897 C21.0672083,3.92909897 21.1189069,4.00664697 21.0930576,4.05834564 L20.4726736,5.79025111 C20.4468242,5.84194978 20.4209749,5.86779911 20.3692762,5.86779911 L16.0782866,5.86779911 C16.0265879,5.86779911 15.9748892,5.91949778 15.9748892,5.97119645 L15.9748892,7.41875923 C15.9748892,7.4704579 16.0265879,7.52215657 16.0782866,7.52215657 L22.359675,7.52215657 C22.4113737,7.49630724 22.4630724,7.57385524 22.437223,7.65140325 Z" id="XMLID_2_"></path>
                    </g>
                </g>
            </g>
        </g>
    </g>
</svg>