<?xml version="1.0" encoding="UTF-8"?>
<svg width="16px" height="146px" viewBox="0 0 16 146" version="1.1" xmlns="http://www.w3.org/2000/svg" xmlns:xlink="http://www.w3.org/1999/xlink">
    <title>Logo-Erasteel</title>
    <g id="Page-1" stroke="none" stroke-width="1" fill="none" fill-rule="evenodd">
        <g id="Erasteel" transform="translate(-952.000000, -812.000000)" fill="#FFFFFF">
            <g id="Logo-Erasteel" transform="translate(952.000000, 812.000000)">
                <path d="M-21.1691756,73.7412333 L-18.2683036,69.1422746 L-15.366376,73.7412333 L-21.1691756,73.7412333 Z M-33.5401067,71.1265918 L-42.7029775,71.1265918 L-42.7029775,68.8040274 L-33.5401067,68.8040274 C-32.865559,68.8040274 -32.3187425,69.3239445 -32.3187425,69.9653096 C-32.3187425,70.6066746 -32.865559,71.1265918 -33.5401067,71.1265918 L-33.5401067,71.1265918 Z M66.6465952,77.2270874 L66.6465952,65.0270999 L62.6732029,65.0270999 L62.6732029,77.2270874 L48.6238196,77.2270874 L48.6238196,74.9015118 L60.5366072,74.9015118 L60.5366072,71.1265918 L48.6238196,71.1265918 L48.6238196,68.8040274 L60.5366072,68.8040274 L60.5366072,65.0270999 L48.6238196,65.0270999 L48.6238196,65 L44.6535942,65 L44.6535942,65.0270999 L44.6535942,68.8040274 L44.6535942,71.1265918 L44.6535942,74.9015118 L44.6535942,77.2270874 L30.2970225,77.2270874 L30.2970225,74.9015118 L42.2098101,74.9015118 L42.2098101,71.1265918 L30.2970225,71.1265918 L30.2970225,68.8040274 L41.904733,68.8040274 L41.904733,65.0270999 L30.2970225,65.0270999 L30.2970225,65 L26.3257415,65 L26.3257415,65.0270999 L19.3015777,65.0270999 L15.3302966,65.0270999 L-2.83710034,65.0270999 C-5.70524778,65.0270999 -8.03080127,67.2382536 -8.03080127,69.9653096 C-8.03080127,72.6923656 -5.70524778,74.9015118 -2.83710034,74.9015118 L5.1054618,74.9015118 C5.77895391,74.9015118 6.32577039,75.4234364 6.32577039,76.0637978 C6.32577039,76.7051628 5.77895391,77.2270874 5.1054618,77.2270874 L-8.20814715,77.2270874 L-15.6725088,65.0270999 L-20.8640984,65.0270999 L-28.3485171,77.2582021 L-28.3485171,76.0637978 C-28.3485171,74.9035192 -28.7686579,73.8566589 -29.4727633,73.01355 C-28.7760473,72.1744558 -28.3485171,71.1185622 -28.3485171,69.9653096 C-28.3485171,67.2382536 -30.6719593,65.0270999 -33.5401067,65.0270999 L-46.6742585,65.0270999 L-46.6742585,77.2270874 L-61.0297746,77.2270874 L-61.0297746,74.9015118 L-49.1180426,74.9015118 L-49.1180426,71.1265918 L-61.0297746,71.1265918 L-61.0297746,68.8040274 L-49.1180426,68.8040274 L-49.1180426,65.0270999 L-61.0297746,65.0270999 L-65,65.0270999 L-65,68.8040274 L-65,71.1265918 L-65,74.9015118 L-65,77.2270874 L-65,81 L-61.0297746,81 L-46.6742585,81 L-42.7029775,81 L-42.7029775,74.9015118 L-33.5401067,74.9015118 C-32.865559,74.9015118 -32.3187425,75.4234364 -32.3187425,76.0637978 L-32.3187425,81 L-30.6392347,81 L-28.3485171,81 L-25.7516666,81 L-23.3691091,77.2270874 L-13.1674982,77.2270874 L-10.7849406,81 L-8.94603271,81 L-5.89737249,81 L5.1054618,81 C7.97044235,81 10.2981071,78.7908538 10.2981071,76.0637978 C10.2981071,73.3377454 7.97044235,71.1265918 5.1054618,71.1265918 L-2.83710034,71.1265918 C-3.51164808,71.1265918 -4.05952019,70.6066746 -4.05952019,69.9653096 C-4.05952019,69.3239445 -3.51164808,68.8040274 -2.83710034,68.8040274 L15.3302966,68.8040274 L15.3302966,81 L19.3015777,81 L19.3015777,68.8040274 L26.3257415,68.8040274 L26.3257415,71.1265918 L26.3257415,74.9015118 L26.3257415,77.2270874 L26.3257415,80.9749075 L26.3257415,81 L62.6732029,81 L66.6465952,81 L81,81 L81,77.2270874 L66.6465952,77.2270874 Z" id="Fill-1" transform="translate(8.000000, 73.000000) rotate(-90.000000) translate(-8.000000, -73.000000) "></path>
            </g>
        </g>
    </g>
</svg>